<mxfile host="app.diagrams.net" modified="2024-03-13T16:25:22.685Z" agent="Mozilla/5.0 (Windows NT 10.0; Win64; x64) AppleWebKit/537.36 (KHTML, like Gecko) Chrome/122.0.0.0 Safari/537.36" etag="eHff0yxtz3dbzTXSJQut" version="24.0.5" type="device">
  <diagram name="Страница — 1" id="Iv7yHpmfVdlFaFOOabj2">
    <mxGraphModel dx="1221" dy="647" grid="1" gridSize="10" guides="1" tooltips="1" connect="1" arrows="1" fold="1" page="1" pageScale="1" pageWidth="827" pageHeight="1169" math="0" shadow="0">
      <root>
        <mxCell id="0" />
        <mxCell id="1" parent="0" />
        <mxCell id="Psk4VWeY31zGx4lELX8S-1" value="Администратор" style="shape=umlActor;verticalLabelPosition=bottom;verticalAlign=top;html=1;outlineConnect=0;" vertex="1" parent="1">
          <mxGeometry x="160" y="300" width="30" height="60" as="geometry" />
        </mxCell>
        <mxCell id="Psk4VWeY31zGx4lELX8S-2" value="Преподаватель" style="shape=umlActor;verticalLabelPosition=bottom;verticalAlign=top;html=1;outlineConnect=0;" vertex="1" parent="1">
          <mxGeometry x="40" y="300" width="30" height="60" as="geometry" />
        </mxCell>
        <mxCell id="Psk4VWeY31zGx4lELX8S-4" value="" style="endArrow=block;html=1;rounded=0;endFill=0;" edge="1" parent="1" source="Psk4VWeY31zGx4lELX8S-2" target="Psk4VWeY31zGx4lELX8S-1">
          <mxGeometry width="50" height="50" relative="1" as="geometry">
            <mxPoint x="390" y="360" as="sourcePoint" />
            <mxPoint x="440" y="310" as="targetPoint" />
          </mxGeometry>
        </mxCell>
        <mxCell id="Psk4VWeY31zGx4lELX8S-8" value="" style="edgeStyle=orthogonalEdgeStyle;rounded=0;orthogonalLoop=1;jettySize=auto;html=1;endArrow=none;endFill=0;startArrow=classic;startFill=1;dashed=1;" edge="1" parent="1" source="Psk4VWeY31zGx4lELX8S-5" target="Psk4VWeY31zGx4lELX8S-7">
          <mxGeometry relative="1" as="geometry" />
        </mxCell>
        <mxCell id="Psk4VWeY31zGx4lELX8S-13" value="&amp;lt;&amp;lt;Extended&amp;gt;&amp;gt;" style="edgeLabel;html=1;align=center;verticalAlign=middle;resizable=0;points=[];" vertex="1" connectable="0" parent="Psk4VWeY31zGx4lELX8S-8">
          <mxGeometry x="0.1417" relative="1" as="geometry">
            <mxPoint x="-6" y="-10" as="offset" />
          </mxGeometry>
        </mxCell>
        <mxCell id="Psk4VWeY31zGx4lELX8S-5" value="Просмотреть жалобы" style="ellipse;whiteSpace=wrap;html=1;" vertex="1" parent="1">
          <mxGeometry x="310" y="190" width="120" height="80" as="geometry" />
        </mxCell>
        <mxCell id="Psk4VWeY31zGx4lELX8S-10" value="" style="edgeStyle=orthogonalEdgeStyle;rounded=0;orthogonalLoop=1;jettySize=auto;html=1;startArrow=classic;startFill=1;endArrow=none;endFill=0;dashed=1;" edge="1" parent="1" source="Psk4VWeY31zGx4lELX8S-6" target="Psk4VWeY31zGx4lELX8S-9">
          <mxGeometry relative="1" as="geometry" />
        </mxCell>
        <mxCell id="Psk4VWeY31zGx4lELX8S-14" value="&amp;lt;&amp;lt;Extended&amp;gt;&amp;gt;" style="edgeLabel;html=1;align=center;verticalAlign=middle;resizable=0;points=[];" vertex="1" connectable="0" parent="Psk4VWeY31zGx4lELX8S-10">
          <mxGeometry x="-0.2083" relative="1" as="geometry">
            <mxPoint x="8" y="-10" as="offset" />
          </mxGeometry>
        </mxCell>
        <mxCell id="Psk4VWeY31zGx4lELX8S-6" value="Просмотреть профиль другого пользователя" style="ellipse;whiteSpace=wrap;html=1;" vertex="1" parent="1">
          <mxGeometry x="300" y="370" width="140" height="80" as="geometry" />
        </mxCell>
        <mxCell id="Psk4VWeY31zGx4lELX8S-7" value="Принять решение насчет жалобы" style="ellipse;whiteSpace=wrap;html=1;" vertex="1" parent="1">
          <mxGeometry x="510" y="190" width="120" height="80" as="geometry" />
        </mxCell>
        <mxCell id="Psk4VWeY31zGx4lELX8S-9" value="Редактировать профиль" style="ellipse;whiteSpace=wrap;html=1;" vertex="1" parent="1">
          <mxGeometry x="520" y="370" width="140" height="80" as="geometry" />
        </mxCell>
        <mxCell id="Psk4VWeY31zGx4lELX8S-11" value="" style="endArrow=classic;html=1;rounded=0;entryX=0;entryY=0.5;entryDx=0;entryDy=0;endFill=1;" edge="1" parent="1" source="Psk4VWeY31zGx4lELX8S-1" target="Psk4VWeY31zGx4lELX8S-6">
          <mxGeometry width="50" height="50" relative="1" as="geometry">
            <mxPoint x="390" y="360" as="sourcePoint" />
            <mxPoint x="440" y="310" as="targetPoint" />
          </mxGeometry>
        </mxCell>
        <mxCell id="Psk4VWeY31zGx4lELX8S-12" value="" style="endArrow=classic;html=1;rounded=0;entryX=0;entryY=0.5;entryDx=0;entryDy=0;endFill=1;" edge="1" parent="1" source="Psk4VWeY31zGx4lELX8S-1" target="Psk4VWeY31zGx4lELX8S-5">
          <mxGeometry width="50" height="50" relative="1" as="geometry">
            <mxPoint x="390" y="360" as="sourcePoint" />
            <mxPoint x="440" y="310" as="targetPoint" />
          </mxGeometry>
        </mxCell>
      </root>
    </mxGraphModel>
  </diagram>
</mxfile>
